<svg xmlns="http://www.w3.org/2000/svg" viewBox="0 0 1920 1080">
  <defs>
    <linearGradient id="skyGrad" x1="0%" y1="0%" x2="0%" y2="100%">
      <stop offset="0%" style="stop-color:#0F2027;stop-opacity:1" />
      <stop offset="100%" style="stop-color:#203A43;stop-opacity:1" />
    </linearGradient>
  </defs>
  
  <!-- Sky Background -->
  <rect width="1920" height="1080" fill="url(#skyGrad)"/>
  
  <!-- Cityscape Buildings -->
  <rect x="50" y="650" width="120" height="430" fill="#0a1a1f" opacity="0.8"/>
  <rect x="200" y="500" width="140" height="580" fill="#0d2228" opacity="0.8"/>
  <rect x="370" y="600" width="110" height="480" fill="#0a1a1f" opacity="0.8"/>
  <rect x="510" y="450" width="160" height="630" fill="#0d2228" opacity="0.8"/>
  <rect x="700" y="550" width="130" height="530" fill="#0a1a1f" opacity="0.8"/>
  <rect x="860" y="400" width="180" height="680" fill="#0d2228" opacity="0.8"/>
  <rect x="1070" y="520" width="140" height="560" fill="#0a1a1f" opacity="0.8"/>
  <rect x="1240" y="480" width="150" height="600" fill="#0d2228" opacity="0.8"/>
  <rect x="1420" y="580" width="120" height="500" fill="#0a1a1f" opacity="0.8"/>
  <rect x="1570" y="520" width="140" height="560" fill="#0d2228" opacity="0.8"/>
  <rect x="1740" y="620" width="130" height="460" fill="#0a1a1f" opacity="0.8"/>
  
  <!-- Building Windows Pattern -->
  <g opacity="0.3" fill="#C5A059">
    <rect x="220" y="520" width="20" height="25" />
    <rect x="250" y="520" width="20" height="25" />
    <rect x="280" y="520" width="20" height="25" />
    <rect x="220" y="560" width="20" height="25" />
    <rect x="250" y="560" width="20" height="25" />
    <rect x="280" y="560" width="20" height="25" />
    
    <rect x="880" y="420" width="25" height="30" />
    <rect x="920" y="420" width="25" height="30" />
    <rect x="960" y="420" width="25" height="30" />
    <rect x="880" y="470" width="25" height="30" />
    <rect x="920" y="470" width="25" height="30" />
    <rect x="960" y="470" width="25" height="30" />
  </g>
</svg>