<svg xmlns="http://www.w3.org/2000/svg" viewBox="0 0 800 600">
  <defs>
    <linearGradient id="propMgmtGrad" x1="0%" y1="0%" x2="100%" y2="100%">
      <stop offset="0%" style="stop-color:#0F2027;stop-opacity:1" />
      <stop offset="100%" style="stop-color:#203A43;stop-opacity:1" />
    </linearGradient>
  </defs>
  
  <!-- Background -->
  <rect width="800" height="600" fill="url(#propMgmtGrad)"/>
  
  <!-- Building Complex -->
  <g opacity="0.8">
    <rect x="150" y="250" width="120" height="200" fill="#1a2f35"/>
    <rect x="300" y="200" width="140" height="250" fill="#1a2f35"/>
    <rect x="470" y="230" width="130" height="220" fill="#1a2f35"/>
    
    <!-- Windows -->
    <g fill="#C5A059" opacity="0.4">
      <rect x="170" y="270" width="20" height="25"/>
      <rect x="205" y="270" width="20" height="25"/>
      <rect x="240" y="270" width="20" height="25"/>
      <rect x="170" y="310" width="20" height="25"/>
      <rect x="205" y="310" width="20" height="25"/>
      <rect x="240" y="310" width="20" height="25"/>
      <rect x="170" y="350" width="20" height="25"/>
      <rect x="205" y="350" width="20" height="25"/>
      <rect x="240" y="350" width="20" height="25"/>
      
      <rect x="320" y="220" width="25" height="30"/>
      <rect x="360" y="220" width="25" height="30"/>
      <rect x="400" y="220" width="25" height="30"/>
      <rect x="320" y="270" width="25" height="30"/>
      <rect x="360" y="270" width="25" height="30"/>
      <rect x="400" y="270" width="25" height="30"/>
    </g>
  </g>
  
  <!-- Management Tools Icons -->
  <g transform="translate(100, 100)" opacity="0.4">
    <circle cx="0" cy="0" r="35" fill="none" stroke="#C5A059" stroke-width="3"/>
    <path d="M -12 -5 L -5 5 L 12 -12" fill="none" stroke="#C5A059" stroke-width="4"/>
  </g>
  
  <g transform="translate(650, 120)" opacity="0.4">
    <rect x="-25" y="-25" width="50" height="50" fill="none" stroke="#C5A059" stroke-width="3"/>
    <circle cx="0" cy="0" r="8" fill="#C5A059"/>
  </g>
</svg>