<svg xmlns="http://www.w3.org/2000/svg" viewBox="0 0 600 400">
  <defs>
    <linearGradient id="prop2Grad" x1="0%" y1="0%" x2="0%" y2="100%">
      <stop offset="0%" style="stop-color:#FFB347;stop-opacity:1" />
      <stop offset="100%" style="stop-color:#FF8C42;stop-opacity:1" />
    </linearGradient>
  </defs>
  
  <!-- Sunset Sky -->
  <rect width="600" height="300" fill="url(#prop2Grad)"/>
  
  <!-- Ground -->
  <rect y="300" width="600" height="100" fill="#8B7355"/>
  
  <!-- Luxury Multi-Story Building -->
  <rect x="200" y="100" width="200" height="200" fill="#F5F5DC"/>
  
  <!-- Balconies -->
  <rect x="190" y="140" width="220" height="3" fill="#696969"/>
  <rect x="190" y="200" width="220" height="3" fill="#696969"/>
  <rect x="190" y="260" width="220" height="3" fill="#696969"/>
  
  <!-- Windows Grid -->
  <g fill="#4A90A4" opacity="0.5">
    <rect x="220" y="110" width="35" height="25"/>
    <rect x="270" y="110" width="35" height="25"/>
    <rect x="320" y="110" width="35" height="25"/>
    <rect x="220" y="150" width="35" height="25"/>
    <rect x="270" y="150" width="35" height="25"/>
    <rect x="320" y="150" width="35" height="25"/>
    <rect x="220" y="210" width="35" height="25"/>
    <rect x="270" y="210" width="35" height="25"/>
    <rect x="320" y="210" width="35" height="25"/>
    <rect x="220" y="270" width="35" height="25"/>
    <rect x="270" y="270" width="35" height="25"/>
    <rect x="320" y="270" width="35" height="25"/>
  </g>
  
  <!-- Entrance -->
  <rect x="265" y="250" width="70" height="50" fill="#8B4513"/>
  <rect x="275" y="260" width="20" height="30" fill="#4A90A4" opacity="0.5"/>
  <rect x="305" y="260" width="20" height="30" fill="#4A90A4" opacity="0.5"/>
  
  <!-- Palm Tree -->
  <rect x="470" y="240" width="12" height="60" fill="#8B4513"/>
  <ellipse cx="476" cy="230" rx="25" ry="15" fill="#228B22"/>
  <ellipse cx="476" cy="220" rx="22" ry="12" fill="#228B22"/>
</svg>