<svg xmlns="http://www.w3.org/2000/svg" viewBox="0 0 600 400">
  <defs>
    <linearGradient id="prop1Grad" x1="0%" y1="0%" x2="0%" y2="100%">
      <stop offset="0%" style="stop-color:#87CEEB;stop-opacity:1" />
      <stop offset="100%" style="stop-color:#4A90A4;stop-opacity:1" />
    </linearGradient>
  </defs>
  
  <!-- Sky -->
  <rect width="600" height="300" fill="url(#prop1Grad)"/>
  
  <!-- Ground -->
  <rect y="300" width="600" height="100" fill="#6B8E23"/>
  
  <!-- Modern House -->
  <rect x="180" y="180" width="240" height="120" fill="#E8E8E8"/>
  <polygon points="180,180 300,120 420,180" fill="#696969"/>
  
  <!-- Door -->
  <rect x="270" y="230" width="60" height="70" fill="#8B4513"/>
  <circle cx="315" cy="265" r="3" fill="#C5A059"/>
  
  <!-- Windows -->
  <rect x="200" y="200" width="40" height="40" fill="#87CEEB" opacity="0.6"/>
  <rect x="360" y="200" width="40" height="40" fill="#87CEEB" opacity="0.6"/>
  <line x1="220" y1="200" x2="220" y2="240" stroke="#696969" stroke-width="2"/>
  <line x1="200" y1="220" x2="240" y2="220" stroke="#696969" stroke-width="2"/>
  <line x1="380" y1="200" x2="380" y2="240" stroke="#696969" stroke-width="2"/>
  <line x1="360" y1="220" x2="400" y2="220" stroke="#696969" stroke-width="2"/>
  
  <!-- Garage -->
  <rect x="100" y="220" width="70" height="80" fill="#D3D3D3"/>
  <rect x="110" y="235" width="50" height="55" fill="#696969" opacity="0.5"/>
  
  <!-- Tree -->
  <rect x="480" y="260" width="15" height="40" fill="#8B4513"/>
  <circle cx="487" cy="250" r="30" fill="#228B22"/>
</svg>