<svg xmlns="http://www.w3.org/2000/svg" viewBox="0 0 1920 800" width="1920" height="800">
  <defs>
    <linearGradient id="relocationGradient" x1="0%" y1="0%" x2="100%" y2="0%">
      <stop offset="0%" style="stop-color:#0F2027;stop-opacity:1" />
      <stop offset="50%" style="stop-color:#203A43;stop-opacity:1" />
      <stop offset="100%" style="stop-color:#0F2027;stop-opacity:1" />
    </linearGradient>
  </defs>
  <rect width="1920" height="800" fill="url(#relocationGradient)"/>
  
  <!-- Houses in neighborhood -->
  <g opacity="0.7">
    <polygon points="200,500 300,400 400,500" fill="#1a3a4a"/>
    <rect x="220" y="500" width="160" height="250" fill="#1a3a4a"/>
    
    <polygon points="500,480 600,380 700,480" fill="#0F2027"/>
    <rect x="520" y="480" width="160" height="270" fill="#0F2027"/>
    
    <polygon points="800,520 900,420 1000,520" fill="#1a3a4a"/>
    <rect x="820" y="520" width="160" height="230" fill="#1a3a4a"/>
    
    <polygon points="1100,490 1200,390 1300,490" fill="#0F2027"/>
    <rect x="1120" y="490" width="160" height="260" fill="#0F2027"/>
    
    <polygon points="1400,510 1500,410 1600,510" fill="#1a3a4a"/>
    <rect x="1420" y="510" width="160" height="240" fill="#1a3a4a"/>
  </g>
  
  <!-- Windows on houses -->
  <rect x="250" y="550" width="40" height="50" fill="#C5A059" opacity="0.3"/>
  <rect x="320" y="550" width="40" height="50" fill="#C5A059" opacity="0.3"/>
  <rect x="550" y="530" width="40" height="50" fill="#C5A059" opacity="0.35"/>
  <rect x="620" y="530" width="40" height="50" fill="#C5A059" opacity="0.35"/>
  <rect x="850" y="570" width="40" height="50" fill="#C5A059" opacity="0.3"/>
  <rect x="920" y="570" width="40" height="50" fill="#C5A059" opacity="0.3"/>
</svg>
